Coordinates
version=1
nRows=11
nColumns=36
inDegrees=yes

Units are S.I. units (second, meters, Newtons, ...)
If the header above contains a line with 'inDegrees', this indicates whether rotational values are in degrees (yes) or radians (no).

endheader
time	pelvis_tilt	pelvis_list	pelvis_rotation	pelvis_tx	pelvis_ty	pelvis_tz	hip_flexion_r	hip_adduction_r	hip_rotation_r	knee_angle_r	knee_angle_r_beta	ankle_angle_r	subtalar_angle_r	mtp_angle_r	hip_flexion_l	hip_adduction_l	hip_rotation_l	knee_angle_l	knee_angle_l_beta	ankle_angle_l	subtalar_angle_l	mtp_angle_l	lumbar_extension	lumbar_bending	lumbar_rotation	arm_flex_r	arm_add_r	arm_rot_r	elbow_flex_r	pro_sup_r	arm_flex_l	arm_add_l	arm_rot_l	elbow_flex_l	pro_sup_l
      0.33000000	     -0.89433090	     -5.54988771	      2.22861885	      0.38516366	      0.97025113	     -0.16632245	      1.92354404	      7.76712315	     -1.64935143	      5.78559631	      0.10097770	      6.93785480	     -1.60930827	     -6.17249953	     29.37132094	     -4.91480074	      0.86465691	     56.10773147	      0.97926465	     -0.13273743	    -19.70193682	     -6.17249953	    -10.54478429	      5.06148279	      6.60654346	      7.41616366	     -7.45922985	     -7.58529249	     42.93778495	    104.47996670	     -0.00506294	     -4.46326699	      6.56588250	     38.94941297	    105.50318052
      0.34000000	     -0.76788360	     -5.35697723	      2.22052075	      0.39613047	      0.97096652	     -0.16586864	      0.56625008	      7.66484290	     -1.40873344	      4.89234020	      0.08538744	      7.18719243	     -1.39342879	     -6.19962136	     29.51930035	     -4.97510295	     -0.00668635	     52.79332160	      0.92141728	     -0.29078571	    -19.37946219	     -6.19962136	    -10.58502745	      4.66468376	      7.30189112	      7.60723693	     -7.69768571	     -7.60332026	     43.73358979	    104.63396271	     -0.49978193	     -4.44874173	      6.23662730	     38.61465410	    105.55815891
      0.35000000	     -0.99146074	     -5.22799583	      2.28368921	      0.40713726	      0.97081784	     -0.16559372	     -0.33386428	      7.59802758	     -1.35569590	      4.13698284	      0.07220397	      7.37328565	     -1.21680395	     -6.21271474	     30.00218496	     -4.99250452	     -0.63977621	     49.32833044	      0.86094178	     -0.42937976	    -18.77867695	     -6.21271474	    -10.15877263	      4.33269409	      7.78733942	      7.75061252	     -7.94529398	     -7.54434181	     44.38053692	    104.73346262	     -1.16838075	     -4.55674759	      5.96767738	     38.34048905	    105.56005387
      0.36000000	     -0.86956436	     -5.14188931	      2.30686893	      0.41821352	      0.97090329	     -0.16528301	     -1.61864690	      7.59013982	     -1.20963376	      3.39065519	      0.05917810	      7.70533290	     -0.97242576	     -6.23780303	     29.92815734	     -5.15070461	     -1.42603310	     45.55690695	      0.79511802	     -0.61156541	    -17.92197382	     -6.23780303	    -10.19353305	      4.05305988	      8.38100801	      7.91982647	     -8.24187533	     -7.50798024	     45.15903920	    104.88344111	     -1.71430439	     -4.61146685	      5.47427403	     38.13463694	    105.58325880
      0.37000000	     -0.97878396	     -5.08173759	      2.37381693	      0.42935277	      0.97035870	     -0.16511115	     -2.60805317	      7.59280433	     -1.15537299	      2.73677354	      0.04776571	      7.99017199	     -0.78414496	     -6.25595980	     30.02593601	     -5.25069473	     -2.03819097	     41.61432649	      0.72630701	     -0.77174462	    -16.77276360	     -6.25595980	     -9.90858566	      3.78901761	      8.84498440	      8.03215395	     -8.53148377	     -7.41514818	     45.87859607	    105.00639756	     -2.33206746	     -4.74562852	      5.01938975	     37.94916477	    105.57970239
      0.38000000	     -1.16459580	     -5.08949241	      2.48374643	      0.44059060	      0.96939286	     -0.16509796	     -3.47693211	      7.65512770	     -1.10840670	      2.17043243	      0.03788119	      8.29027203	     -0.61470459	     -6.27033550	     30.11888715	     -5.34971739	     -2.46215604	     37.52842047	      0.65499450	     -0.86159406	    -15.42554081	     -6.27033550	     -9.49521710	      3.60965330	      9.24376361	      8.09508581	     -8.83365799	     -7.29890412	     46.57998711	    105.03657071	     -2.97514105	     -4.90852973	      4.58847248	     37.77963477	    105.48089908
      0.39000000	     -0.95881784	     -5.08437257	      2.53580268	      0.45196305	      0.96880043	     -0.16504263	     -4.76733970	      7.71404827	     -1.04964479	      1.65558313	      0.02889538	      8.77936004	     -0.32723121	     -6.29886347	     29.62371138	     -5.58725808	     -3.25337901	     33.26261502	      0.58054215	     -0.63075050	    -13.29261357	     -6.29886347	     -9.60734917	      3.38633012	      9.70896793	      8.21585797	     -9.16116242	     -7.21373986	     47.38251579	    105.12575430	     -3.51959271	     -4.99542789	      3.80527995	     37.70854532	    105.39867536
      0.40000000	     -1.01439641	     -5.11789032	      2.63574174	      0.46337052	      0.96757335	     -0.16516108	     -5.69204768	      7.79200742	     -1.05283125	      1.30214882	      0.02272678	      9.24841408	     -0.06070000	     -6.32673340	     29.36294625	     -5.74551129	     -3.73353548	     28.95711292	      0.50539696	     -0.28735555	    -10.94480073	     -6.32673340	     -9.35694641	      3.19769482	     10.05266423	      8.27902452	     -9.45743972	     -7.11878425	     48.07202292	    105.20587009	     -4.11183347	     -5.14046380	      3.09565468	     37.61838897	    105.31516542
      0.41000000	     -1.12947218	     -5.21601040	      2.71182162	      0.47486473	      0.96603217	     -0.16539486	     -6.50794255	      7.91191042	     -1.17566370	      1.04356272	      0.01821361	      9.82669243	      0.48095686	     -6.38270592	     29.15308932	     -5.99073700	     -4.26383180	     24.77346345	      0.43237850	      0.71682607	     -7.78023070	     -6.38270592	     -9.03378988	      3.07911646	     10.35978748	      8.38757134	     -9.75372339	     -7.09094369	     48.66252059	    105.38434628	     -4.79407868	     -5.23472231	      2.17497712	     37.66468485	    105.28016878
      0.42000000	     -1.21726081	     -5.28464469	      2.82496616	      0.48638106	      0.96442757	     -0.16573186	     -7.30560622	      8.00652439	     -1.16639660	      0.89356178	      0.01559560	     10.33735202	      0.60249960	     -6.41256772	     28.79499645	     -6.12711779	     -4.54062081	     20.47483558	      0.35735329	      0.95184155	     -5.39103955	     -6.41256772	     -8.72756473	      2.90936276	     10.63552428	      8.44552176	    -10.03579495	     -7.02418664	     49.18332525	    105.44034750	     -5.29779049	     -5.44944496	      1.65804789	     37.47384862	    105.14828434
      0.43000000	     -1.35429347	     -5.39066474	      2.92051405	      0.49800855	      0.96256893	     -0.16614823	     -8.01784736	      8.12075912	     -1.22478239	      0.81552217	      0.01423355	     10.91849103	      1.02607577	     -6.47606221	     28.53281208	     -6.36910064	     -5.02172477	     16.50592230	      0.28808269	      1.92904775	     -1.98874653	     -6.47606221	     -8.34434743	      2.76377489	     10.88982425	      8.49373450	    -10.28632628	     -7.08372295	     49.60755234	    105.68418632	     -5.85860191	     -5.64224826	      0.99366902	     37.44338741	    105.03486287
